<svg width="500" height="500" viewBox="0 0 500 500" fill="none" xmlns="http://www.w3.org/2000/svg">
<g clip-path="url(#clip0_1452_83)">
<path d="M282.212 376.231C282.141 395.022 281.905 413.814 282.107 432.602C282.161 437.621 280.736 439.413 275.636 439.096C269.174 438.695 262.664 439.158 256.184 438.945C252.354 438.819 250.797 440.084 250.935 444.076C251.177 451.053 250.868 458.048 251.046 465.029C251.137 468.607 249.971 470.081 246.209 470.052C228.746 469.919 211.281 469.921 193.819 470.052C190.089 470.08 188.884 468.668 188.947 465.06C189.094 456.748 188.939 448.43 188.938 439.575C188.969 439.036 189.135 438.863 189.593 438.911C199.94 438.959 209.829 438.959 220.012 438.959C220.012 427.738 220.012 417.434 220.478 407.079C230.829 407.028 240.714 407.028 251.106 407.028C251.106 396.268 251.106 386.187 251.567 376.064C261.976 375.973 271.925 375.924 281.958 375.964C282.043 376.053 282.212 376.231 282.212 376.231Z" fill="black"/>
<path d="M407.248 156.773C416.056 156.85 424.868 157.107 433.671 156.925C437.85 156.839 439.198 158.361 439.066 162.428C438.828 169.735 439.116 177.059 438.962 184.371C438.889 187.812 440.193 189.111 443.632 189.039C450.944 188.888 458.263 189.089 465.577 188.973C468.741 188.923 470.042 190.093 470.027 193.335C469.943 211.125 469.942 228.915 470.027 246.705C470.042 249.985 468.663 251.059 465.536 251.028C457.059 250.944 448.579 251.052 439.561 251.049C439.021 251.015 438.852 250.85 438.898 250.394C438.961 241.457 438.852 232.973 439.055 224.497C439.139 220.971 437.806 219.89 434.403 219.948C425.26 220.102 416.112 219.978 406.987 219.986C407.007 220.006 407.048 220.047 407.03 219.576C406.954 209.056 406.897 199.008 406.907 188.498C406.945 177.73 406.914 167.424 406.975 157.031C407.065 156.945 407.248 156.773 407.248 156.773Z" fill="black"/>
<path d="M439.107 251.097C439.127 259.669 438.881 268.163 439.075 276.648C439.171 280.816 437.664 282.096 433.583 282.068C414.768 281.94 395.951 282.066 376.594 282.073C376.054 282.045 375.877 281.875 375.926 281.417C375.966 260.619 375.957 240.279 376.419 219.963C386.943 220.007 396.996 220.027 407.049 220.047C407.049 220.047 407.008 220.006 406.998 220.456C406.994 229.384 407.106 237.863 406.953 246.338C406.893 249.662 407.822 251.147 411.432 251.055C420.568 250.821 429.712 250.898 438.852 250.85C438.852 250.85 439.022 251.015 439.107 251.097Z" fill="black"/>
<path d="M94.7918 345.196C86.1549 345.128 77.5162 344.933 68.8819 345.054C65.2208 345.106 63.9253 343.796 63.9511 340.129C64.0764 322.352 64.0802 304.574 63.9496 286.797C63.9221 283.051 65.3717 281.889 68.9561 281.95C77.2596 282.091 85.5682 281.937 94.4143 281.931C94.9539 281.96 95.1299 282.128 95.0812 282.587C95.076 293.35 95.1195 303.655 95.1067 314.429C95.0796 324.886 95.1088 334.875 95.0515 344.946C94.965 345.03 94.7918 345.196 94.7918 345.196Z" fill="black"/>
<path d="M250.773 125.754C250.849 107.289 251.099 88.8222 250.888 70.3606C250.83 65.2808 252.364 63.6678 257.403 63.8976C265.204 64.2532 273.036 63.9293 281.396 63.9192C281.937 63.9449 282.118 64.1175 282.069 64.5764C282.068 75.0148 282.116 84.9943 282.099 95.4401C282.037 105.931 282.041 115.956 281.574 125.989C271.108 126.037 261.113 126.077 251.032 126.027C250.946 125.936 250.773 125.754 250.773 125.754Z" fill="black"/>
<path d="M281.844 63.8587C281.837 54.8167 282.044 45.8595 281.945 36.9058C281.904 33.2835 283.134 31.8555 286.834 31.9498C294.296 32.1399 301.77 32.1451 309.231 31.9488C313.004 31.8495 314.103 33.4211 314.048 36.9742C313.916 45.5988 314.068 54.2279 314.08 63.3956C314.054 63.9361 313.881 64.1177 313.422 64.0684C302.681 64.0519 292.399 64.0847 282.117 64.1175C282.117 64.1175 281.935 63.9449 281.844 63.8587Z" fill="black"/>
<path d="M188.886 439.123C179.817 439.137 170.829 438.936 161.846 439.056C158.135 439.105 156.885 437.715 156.947 434.079C157.093 425.427 156.939 416.77 156.938 407.575C156.969 407.036 157.135 406.863 157.593 406.911C168.331 407.008 178.612 407.058 188.93 407.568C189.023 418.307 189.079 428.585 189.135 438.863C189.135 438.863 188.969 439.036 188.886 439.123Z" fill="black"/>
<path d="M376.143 282.13C376.153 291.194 375.945 300.176 376.057 309.153C376.104 312.86 374.72 314.116 371.085 314.052C362.771 313.905 354.451 314.065 345.594 314.073C345.054 314.045 344.877 313.875 344.926 313.417C344.975 302.763 344.975 292.567 344.975 281.875C355.744 281.875 365.81 281.875 375.877 281.875C375.877 281.875 376.054 282.045 376.143 282.13Z" fill="black"/>
<path d="M314.213 345.231C314.141 353.712 313.883 362.198 314.074 370.673C314.169 374.863 312.622 376.164 308.563 376.068C300.085 375.869 291.598 376.07 282.664 376.169C282.213 376.231 282.044 376.053 282.008 375.506C281.973 365.095 281.973 355.231 281.973 344.875C293.079 344.875 303.477 344.875 313.959 344.964C314.044 345.053 314.213 345.231 314.213 345.231Z" fill="black"/>
<path d="M156.773 219.753C156.851 211.113 157.063 202.47 156.944 193.832C156.893 190.115 158.306 188.889 161.926 188.948C170.566 189.089 179.212 188.931 188.396 188.919C188.937 188.945 189.118 189.117 189.069 189.576C189.019 199.918 189.019 209.801 189.019 220.117C177.954 220.117 167.536 220.117 157.032 220.026C156.946 219.935 156.773 219.753 156.773 219.753Z" fill="black"/>
<path d="M188.844 188.859C188.837 179.796 189.051 170.817 188.942 161.842C188.897 158.133 190.287 156.885 193.917 156.948C202.229 157.094 210.547 156.934 219.402 156.924C219.942 156.951 220.121 157.122 220.072 157.58C219.973 168.34 219.924 178.641 219.415 188.966C209.008 189.033 199.063 189.075 189.117 189.117C189.117 189.117 188.935 188.945 188.844 188.859Z" fill="black"/>
<path d="M125.789 376.196C117.136 376.128 108.482 375.928 99.8315 376.056C96.1042 376.111 94.884 374.684 94.9477 371.065C95.0942 362.746 94.937 354.422 94.8462 345.648C94.7894 345.196 94.9626 345.03 95.5066 344.994C105.998 345.008 115.944 345.056 125.929 345.566C126.023 355.972 126.079 365.917 126.049 375.946C125.963 376.03 125.789 376.196 125.789 376.196Z" fill="black"/>
<path d="M219.852 156.866C219.843 148.134 220.058 139.485 219.942 130.84C219.892 127.126 221.294 125.886 224.922 125.948C233.236 126.091 241.556 125.926 250.322 125.82C250.771 125.754 250.944 125.936 250.981 126.486C250.991 136.982 250.966 146.929 250.477 156.926C240.05 157.025 230.085 157.073 220.121 157.122C220.121 157.122 219.941 156.951 219.852 156.866Z" fill="black"/>
<path d="M345.248 94.7729C353.889 94.8507 362.531 95.062 371.169 94.9437C374.884 94.8928 376.116 96.3029 376.053 99.9237C375.909 108.231 376.071 116.544 376.083 125.395C376.057 125.936 375.884 126.117 375.425 126.068C364.992 125.998 355.018 125.978 345.026 125.491C344.967 115.056 344.926 105.087 344.975 95.0315C345.066 94.9452 345.248 94.7729 345.248 94.7729Z" fill="black"/>
<path d="M156.886 407.123C148.148 407.138 139.492 406.932 130.84 407.056C127.12 407.109 125.883 405.699 125.947 402.071C126.095 393.75 125.937 385.424 125.846 376.648C125.789 376.196 125.963 376.03 126.507 375.994C136.998 376.008 146.946 376.058 156.93 376.568C157.023 386.974 157.08 396.919 157.136 406.863C157.136 406.863 156.969 407.036 156.886 407.123Z" fill="black"/>
<path d="M314.142 63.8449C322.874 63.838 331.521 64.0566 340.165 63.9431C343.882 63.8943 345.114 65.3029 345.052 68.9264C344.91 77.2396 345.074 85.5581 345.181 94.3236C345.247 94.7729 345.065 94.9451 344.515 94.982C333.998 94.9695 324.031 94.9202 314.053 94.9001C314.043 94.9292 314.102 94.911 314.059 94.4496C313.972 84.0313 313.927 74.0743 313.883 64.1174C313.883 64.1174 314.056 63.9358 314.142 63.8449Z" fill="black"/>
<path d="M345.141 314.13C345.151 322.864 344.938 331.515 345.055 340.162C345.106 343.881 343.697 345.115 340.071 345.052C331.755 344.908 323.433 345.069 314.663 345.169C314.213 345.231 314.044 345.053 314.008 344.506C314.016 334.009 314.061 324.059 314.565 314.066C324.975 313.974 334.925 313.925 344.874 313.875C344.874 313.875 345.052 314.045 345.141 314.13Z" fill="black"/>
<path d="M376.142 125.845C384.874 125.838 393.521 126.057 402.165 125.944C405.882 125.895 407.114 127.303 407.052 130.927C406.91 139.24 407.074 147.559 407.181 156.324C407.247 156.773 407.065 156.946 406.515 156.982C395.991 156.999 386.017 156.978 376.025 156.492C375.966 146.057 375.924 136.087 375.883 126.118C375.883 126.118 376.056 125.936 376.142 125.845Z" fill="black"/>
<path d="M94.8637 281.876C94.8523 273.145 95.0611 264.497 94.9435 255.854C94.8933 252.156 96.2643 250.883 99.9072 250.948C108.22 251.094 116.538 250.931 125.395 250.919C125.935 250.945 126.117 251.117 126.068 251.576C125.984 261.982 125.95 271.93 125.455 281.924C115.038 282.023 105.083 282.075 95.1277 282.128C95.1277 282.128 94.9518 281.96 94.8637 281.876Z" fill="black"/>
<path d="M125.844 250.859C125.837 242.127 126.056 233.479 125.942 224.836C125.893 221.118 127.302 219.886 130.925 219.948C139.239 220.091 147.557 219.926 156.323 219.82C156.772 219.754 156.944 219.936 156.981 220.486C157.018 230.918 157.018 240.8 157.018 251.118C146.288 251.118 136.202 251.118 126.117 251.118C126.117 251.118 125.935 250.945 125.844 250.859Z" fill="black"/>
<path d="M344.953 189.434C354.937 188.984 364.956 189.003 375.434 189.065C375.934 199.109 375.974 209.11 376.035 219.584C366.043 220.034 356.029 220.011 345.553 219.97C345.056 209.935 345.022 199.919 344.953 189.434Z" fill="black"/>
<path d="M281.953 126.423C292.29 125.972 302.66 125.991 313.495 126.031C313.961 126.052 313.938 126.013 313.961 126.499C313.968 137.01 313.953 147.036 313.967 157.031C313.996 157 314.055 156.938 314.055 156.938C303.582 156.938 293.108 156.938 281.987 156.938C281.987 146.76 281.987 136.827 281.953 126.423Z" fill="black"/>
<path d="M344.966 157.029C344.963 167.408 344.985 177.772 345.021 188.609C334.898 189.083 324.761 189.083 314.008 189.083C314.008 178.416 314.008 168.149 314.031 157.41C314.054 156.938 313.996 157 314.438 157.007C324.906 157.028 334.931 157.044 344.956 157.059C344.956 157.059 344.99 157.014 344.966 157.029Z" fill="black"/>
</g>
<defs>
<clipPath id="clip0_1452_83">
<rect width="500" height="500" fill="white"/>
</clipPath>
</defs>
</svg>
